<svg xmlns="http://www.w3.org/2000/svg" width="20" height="22" fill="none" viewBox="0 0 20 22"><path fill="#9A9AAF" d="M18.4569 15.1537C18.4569 15.1537 18.3808 12.3116 18.2801 7.40373C18.2129 4.13058 15.3615 0.845915 11.4262 0.130602C9.80999 -0.163238 7.99975 0.130577 7.99975 0.130577C4.06439 0.845889 1.14582 3.76154 1.14582 7.40373C1.14582 12.199 1.14582 15.1537 1.14582 15.1537C1.14582 15.1537 0.712886 15.5 0.212897 16C-0.287092 16.5 0.121532 17.0097 1.14582 17.0097H18.4569C19 17 20 16.5 19.5 16L18.9784 15.5768L18.4569 15.1537ZM3.71296 14.9037C3.71296 14.9037 3.71028 11.4195 3.71618 7.43091C3.71618 7.42154 3.71296 7.4131 3.71296 7.40373C3.71296 4.50404 6.39903 2.15373 9.71296 2.15373C13.0269 2.15373 15.713 4.50404 15.713 7.40373C15.713 7.4131 15.7097 7.42154 15.7097 7.43091C15.7156 11.42 15.9094 13.1306 15.9094 14.9037H3.71296ZM9.71296 21.6537C11.6051 21.6537 13.1399 20.3108 13.1399 18.6537H6.286C6.286 20.3108 7.82082 21.6537 9.71296 21.6537Z"/></svg>