<svg xmlns="http://www.w3.org/2000/svg" width="48" height="48" fill="none" viewBox="0 0 48 48"><path fill="#EAEAEA" d="M5 35V13C5 10.8 6.8 9 9 9H39C41.2 9 43 10.8 43 13V35C43 37.2 41.2 39 39 39H9C6.8 39 5 37.2 5 35Z"/><path fill="#9B9B9B" d="M43 21V19H31C29.9 19 29 18.1 29 17C29 15.9 29 15 29 15V9H27V12C27 12 27 14.8 27 17C27 19.2 28.8 21 31 21H34V27H31C28.2 27 26 29.2 26 32C26 34.8 26 39 26 39H28V36.5V35C28 35 28 33.7 28 32C28 30.3 29.3 29 31 29H43V27H36V21H43Z"/><path fill="#9B9B9B" d="M17 27H14V21H17C19.2 21 21 19.2 21 17C21 14.8 21 12.5 21 12.5V9H19V11.5V15C19 15 19 15.9 19 17C19 18.1 18.1 19 17 19H5V21H12V27H5V29H17C18.7 29 20 30.3 20 32C20 33.7 20 35 20 35V39H22V37C22 37 22 34.8 22 32C22 29.2 19.8 27 17 27Z"/></svg>