<svg xmlns="http://www.w3.org/2000/svg" width="30" height="30" fill="none" viewBox="0 0 30 30"><path fill="#000" d="M21.9 16.1727C21.9603 16.2711 21.9947 16.3832 22 16.4985L21.9934 16.505C21.9873 16.6195 21.9525 16.7306 21.8922 16.8281C21.8319 16.9256 21.7481 17.0064 21.6484 17.063L17.0025 19.0002H16.9941L15.0541 23.653C15.0026 23.7572 14.9229 23.8449 14.8242 23.9062C14.7254 23.9675 14.6115 24 14.4953 24C14.3791 24 14.2652 23.9675 14.1664 23.9062C14.0677 23.8449 13.988 23.7572 13.9365 23.653L11.9994 19.003H11.9928L7.34505 17.0648C7.24537 17.0082 7.16152 16.9275 7.10123 16.83C7.04093 16.7325 7.00612 16.6214 7 16.5069C7.00526 16.3916 7.03967 16.2795 7.10001 16.1811C7.16036 16.0827 7.24466 16.0013 7.34505 15.9443L11.9984 13.9995H12.0031L13.944 9.3458C13.9958 9.24191 14.0755 9.15452 14.1742 9.09344C14.273 9.03236 14.3867 9 14.5028 9C14.6189 9 14.7327 9.03236 14.8314 9.09344C14.9301 9.15452 15.0098 9.24191 15.0616 9.3458L17.0006 13.9977H17.0072L21.655 15.9359C21.7553 15.9928 21.8396 16.0743 21.9 16.1727Z"/><path fill="#000" d="M25.9467 7.82544C25.9788 7.87791 25.9972 7.93769 26 7.99919L25.9965 8.00269C25.9932 8.06374 25.9747 8.12299 25.9425 8.17499C25.9104 8.22698 25.8656 8.27006 25.8125 8.30025L23.3347 9.33345H23.3302L22.2955 11.8149C22.268 11.8705 22.2256 11.9173 22.1729 11.95C22.1202 11.9827 22.0595 12 21.9975 12C21.9355 12 21.8748 11.9827 21.8221 11.95C21.7694 11.9173 21.727 11.8705 21.6995 11.8149L20.6663 9.33495H20.6628L18.184 8.30125C18.1309 8.27106 18.0861 8.22798 18.054 8.17599C18.0218 8.12399 18.0033 8.06474 18 8.00369C18.0028 7.94219 18.0212 7.88241 18.0533 7.82994C18.0855 7.77746 18.1305 7.73401 18.184 7.70363L20.6658 6.66642H20.6683L21.7035 4.18443C21.7311 4.12902 21.7736 4.08241 21.8263 4.04983C21.8789 4.01726 21.9396 4 22.0015 4C22.0634 4 22.1241 4.01726 22.1767 4.04983C22.2294 4.08241 22.2719 4.12902 22.2995 4.18443L23.3337 6.66542H23.3372L25.816 7.69913C25.8695 7.72951 25.9145 7.77296 25.9467 7.82544Z"/></svg>