<svg xmlns="http://www.w3.org/2000/svg" width="44" height="44" fill="none" viewBox="0 0 44 44"><circle cx="23" cy="23" r="19" stroke="#2C2C35" stroke-width="2"/><path fill="#15FFAB" d="M23 3.5C23 3.5 22.5 5.5 26.2699 6.77025C32.9316 8.63105 37.8125 14.7398 37.8125 22C37.8125 30.7389 30.7403 37.8125 22 37.8125C13.2611 37.8125 6.1875 30.7403 6.1875 22C6.1875 18.8627 8.49125 16.0131 9.5 14.5C10.5088 12.9869 11 10 9 9.5C9 9.5 6.25738 8.61393 4 12C3 13.5 1 15.5 0.687757 22.1145C0.749632 33.8924 10.2678 43.3373 22.0459 43.3124C33.7954 43.2877 43.3125 34.5 43.3125 22C43.3125 12.0628 36.5114 3.71431 27.31 1.35472C26.0114 1.02172 23 1.50001 23 3.5Z"/></svg>