<svg xmlns="http://www.w3.org/2000/svg" viewBox="0 0 64 64"><g id="_31.star" data-name="31.star"><path d="M48.4,32a1,1,0,0,0-1-1A14.46,14.46,0,0,1,33,16.55a1,1,0,0,0-2,0A14.47,14.47,0,0,1,16.49,31a1,1,0,0,0,0,2A14.47,14.47,0,0,1,31,47.45a1,1,0,0,0,2,0A14.46,14.46,0,0,1,47.4,33,1,1,0,0,0,48.4,32Z"/><path d="M8.82,18.44a7.36,7.36,0,0,1,7.35,7.35,1,1,0,0,0,2,0,7.35,7.35,0,0,1,7.34-7.35,1,1,0,0,0,0-2A7.34,7.34,0,0,1,18.17,9.1a1,1,0,0,0-2,0,7.35,7.35,0,0,1-7.35,7.34A1,1,0,0,0,8.82,18.44Z"/><path d="M25.51,45a7.35,7.35,0,0,1-7.34-7.35,1,1,0,0,0-2,0A7.36,7.36,0,0,1,8.82,45a1,1,0,0,0,0,2,7.35,7.35,0,0,1,7.35,7.34,1,1,0,0,0,2,0A7.34,7.34,0,0,1,25.51,47,1,1,0,0,0,25.51,45Z"/><path d="M38.49,18.44a7.35,7.35,0,0,1,7.34,7.35,1,1,0,0,0,2,0,7.36,7.36,0,0,1,7.35-7.35,1,1,0,0,0,0-2A7.35,7.35,0,0,1,47.83,9.1a1,1,0,0,0-2,0,7.34,7.34,0,0,1-7.34,7.34A1,1,0,0,0,38.49,18.44Z"/><path d="M55.07,45.56a7.35,7.35,0,0,1-7.34-7.35,1,1,0,0,0-2,0,7.36,7.36,0,0,1-7.35,7.35,1,1,0,1,0,0,2,7.35,7.35,0,0,1,7.35,7.34,1,1,0,0,0,2,0,7.34,7.34,0,0,1,7.34-7.34A1,1,0,0,0,55.07,45.56Z"/></g></svg>